<svg version="1.1" id="Capa_1" xmlns="http://www.w3.org/2000/svg" x="0" y="0" width="100.461" height="100.46" viewBox="0 0 584.461 584.46" xml:space="preserve"><style>}</style><path d="M207.021 286.228c20.184 0 36.601-16.42 36.601-36.604 0-20.184-16.42-36.604-36.601-36.604-20.184 0-36.604 16.42-36.604 36.604 0 20.184 16.42 36.604 36.604 36.604zm85.209 255.63c20.184 0 36.604-16.421 36.604-36.604s-16.42-36.604-36.604-36.604c-20.184 0-36.604 16.42-36.604 36.604s16.42 36.604 36.604 36.604zM207.021 201.02c20.184 0 36.601-16.42 36.601-36.604 0-20.184-16.42-36.601-36.601-36.601-20.184 0-36.604 16.42-36.604 36.601 0 20.184 16.42 36.604 36.604 36.604zm0 170.417c20.184 0 36.601-16.42 36.601-36.604s-16.42-36.604-36.601-36.604c-20.184 0-36.604 16.421-36.604 36.604s16.42 36.604 36.604 36.604zm0 85.212c20.184 0 36.601-16.42 36.601-36.601 0-20.184-16.42-36.604-36.601-36.604-20.184 0-36.604 16.42-36.604 36.604 0 20.181 16.42 36.601 36.604 36.601zm304.235-207.022c0 20.184 16.42 36.604 36.604 36.604s36.602-16.423 36.602-36.604-16.42-36.604-36.605-36.604c-20.185.001-36.601 16.421-36.601 36.604zM292.23 456.649c20.184 0 36.604-16.42 36.604-36.601 0-20.184-16.42-36.604-36.604-36.604-20.184 0-36.604 16.42-36.604 36.604 0 20.181 16.42 36.601 36.604 36.601zM36.604 328.833c20.184 0 36.604-16.42 36.604-36.604 0-20.184-16.42-36.601-36.604-36.601C16.42 255.628 0 272.048 0 292.232c0 20.181 16.42 36.601 36.604 36.601zm85.208-42.605c20.184 0 36.604-16.42 36.604-36.604 0-20.184-16.42-36.604-36.604-36.604s-36.601 16.42-36.601 36.604c.001 20.184 16.418 36.604 36.601 36.604zm0 85.209c20.184 0 36.604-16.42 36.604-36.604s-16.42-36.604-36.604-36.604-36.601 16.421-36.601 36.604 16.418 36.604 36.601 36.604zm340.836-85.209c20.184 0 36.604-16.42 36.604-36.604 0-20.184-16.42-36.604-36.604-36.604-20.186 0-36.605 16.42-36.605 36.604 0 20.184 16.424 36.604 36.605 36.604zm-85.209 0c20.184 0 36.604-16.42 36.604-36.604 0-20.184-16.42-36.604-36.604-36.604s-36.602 16.42-36.602 36.604c.001 20.184 16.421 36.604 36.602 36.604zm121.813 48.608c0-20.184-16.42-36.604-36.604-36.604-20.186 0-36.605 16.42-36.605 36.604s16.42 36.604 36.605 36.604c20.184 0 36.604-16.42 36.604-36.604zM292.23 371.437c20.184 0 36.604-16.42 36.604-36.604s-16.42-36.604-36.604-36.604c-20.184 0-36.604 16.421-36.604 36.604s16.42 36.604 36.604 36.604zm255.625-73.204c-20.184 0-36.604 16.42-36.604 36.604s16.42 36.604 36.604 36.604c20.186 0 36.605-16.42 36.605-36.604s-16.419-36.604-36.605-36.604zM292.23 286.228c20.184 0 36.604-16.42 36.604-36.604 0-20.184-16.42-36.601-36.604-36.601-20.184 0-36.604 16.42-36.604 36.604s16.42 36.601 36.604 36.601zm0-85.208c20.184 0 36.604-16.42 36.604-36.604 0-20.184-16.42-36.601-36.604-36.601-20.184 0-36.604 16.42-36.604 36.601 0 20.184 16.42 36.604 36.604 36.604zm0-85.209c20.184 0 36.604-16.42 36.604-36.604 0-20.184-16.42-36.604-36.604-36.604-20.184 0-36.604 16.42-36.604 36.604 0 20.184 16.42 36.604 36.604 36.604zm121.813 219.025c0-20.184-16.42-36.604-36.604-36.604s-36.602 16.42-36.602 36.604 16.42 36.604 36.602 36.604c20.184-.003 36.604-16.42 36.604-36.604z" fill="#e31b6d"/></svg>